<svg viewBox="0 0 960 640" xmlns="http://www.w3.org/2000/svg" font-family="'Open Sans', Arial, sans-serif">
  <rect x="0" y="0" width="960" height="640" rx="20" fill="#131D33"/>

  <rect x="0" y="0" width="960" height="52" rx="20" fill="#1E2E4E"/>
  <rect x="0" y="32" width="960" height="20" fill="#1E2E4E"/>
  <circle cx="30" cy="26" r="6" fill="#8fa0b8" opacity="0.5"/>
  <circle cx="50" cy="26" r="6" fill="#8fa0b8" opacity="0.5"/>
  <circle cx="70" cy="26" r="6" fill="#c94545"/>
  <text x="96" y="31" font-size="15" font-weight="700" fill="#cdd8e3">Panel operativo &#183; Sin sistema</text>

  <text x="56" y="112" font-size="13" font-weight="700" fill="#e2a0a0" letter-spacing="0.5">COSTO OCULTO MENSUAL</text>
  <text x="56" y="168" font-size="50" font-weight="800" fill="#ffffff">$???,???</text>
  <text x="330" y="168" font-size="18" font-weight="600" fill="#8fa0b8">MXN/mes</text>
  <text x="56" y="196" font-size="14" fill="#8fa0b8">sin visibilidad real, no tienes forma de saberlo</text>

  <rect x="650" y="128" width="254" height="42" rx="21" fill="rgba(201,69,69,0.22)" stroke="#c94545" stroke-width="1.5"/>
  <text x="777" y="154" font-size="14" font-weight="700" fill="#e2a0a0" text-anchor="middle">&#9888; RIESGO ALTO</text>

  <rect x="56" y="250" width="848" height="44" rx="10" fill="rgba(201,69,69,0.14)"/>
  <rect x="56" y="250" width="4" height="44" rx="2" fill="#c94545"/>
  <text x="78" y="277" font-size="15" fill="#f0dede">Pagos atrasados y sin seguimiento</text>

  <rect x="56" y="306" width="848" height="44" rx="10" fill="rgba(201,69,69,0.14)"/>
  <rect x="56" y="306" width="4" height="44" rx="2" fill="#c94545"/>
  <text x="78" y="333" font-size="15" fill="#f0dede">Nómina con errores frecuentes</text>

  <rect x="56" y="362" width="848" height="44" rx="10" fill="rgba(201,69,69,0.14)"/>
  <rect x="56" y="362" width="4" height="44" rx="2" fill="#c94545"/>
  <text x="78" y="389" font-size="15" fill="#f0dede">Información financiera desactualizada</text>

  <rect x="56" y="418" width="848" height="44" rx="10" fill="rgba(201,69,69,0.14)"/>
  <rect x="56" y="418" width="4" height="44" rx="2" fill="#c94545"/>
  <text x="78" y="445" font-size="15" fill="#f0dede">Requerimiento SAT sin resolver</text>

  <polyline points="56,560 150,540 240,575 330,548 420,590 510,552 600,600 690,562 780,610 870,575"
    fill="none" stroke="#c94545" stroke-width="3" stroke-linecap="round" stroke-linejoin="round" opacity="0.85"/>

  <text x="480" y="632" font-size="13" fill="#5c6b80" text-anchor="middle">Así se ve tu operación cuando todo depende de ti, sin un sistema detrás.</text>
</svg>
