<svg viewBox="0 0 960 640" xmlns="http://www.w3.org/2000/svg" font-family="'Open Sans', Arial, sans-serif">
  <defs>
    <linearGradient id="orangeGrad" x1="0" y1="0" x2="1" y2="1">
      <stop offset="0%" stop-color="#FF8A00"/>
      <stop offset="100%" stop-color="#B35900"/>
    </linearGradient>
  </defs>

  <rect x="0" y="0" width="960" height="640" rx="20" fill="#131D33"/>

  <rect x="0" y="0" width="960" height="52" rx="20" fill="#1E2E4E"/>
  <rect x="0" y="32" width="960" height="20" fill="#1E2E4E"/>
  <circle cx="30" cy="26" r="6" fill="#8fa0b8" opacity="0.5"/>
  <circle cx="50" cy="26" r="6" fill="#8fa0b8" opacity="0.5"/>
  <circle cx="70" cy="26" r="6" fill="#FF8A00"/>
  <text x="96" y="31" font-size="15" font-weight="700" fill="#cdd8e3">Panel operativo &#183; Diagn&#243;stico Grupo Sachman</text>

  <!-- Card A: caos -->
  <rect x="32" y="80" width="430" height="290" rx="14" fill="#1c2942" stroke="#2c3c5c" stroke-width="1"/>
  <text x="56" y="118" font-size="14" font-weight="700" fill="#f2a65a" letter-spacing="0.5">TU OPERACI&#211;N HOY</text>
  <text x="56" y="168" font-size="46" font-weight="800" fill="#ffffff">$58,600</text>
  <text x="220" y="168" font-size="18" font-weight="600" fill="#8fa0b8">MXN/mes</text>
  <text x="56" y="196" font-size="14" fill="#8fa0b8">costo oculto estimado por desorden operativo</text>

  <rect x="56" y="220" width="180" height="34" rx="17" fill="#3a2233"/>
  <text x="146" y="242" font-size="13" fill="#f2b28a" text-anchor="middle">Pagos atrasados</text>
  <rect x="56" y="264" width="220" height="34" rx="17" fill="#3a2233"/>
  <text x="166" y="286" font-size="13" fill="#f2b28a" text-anchor="middle">Info sin actualizar</text>
  <rect x="56" y="308" width="260" height="34" rx="17" fill="#3a2233"/>
  <text x="186" y="330" font-size="13" fill="#f2b28a" text-anchor="middle">Horas apagando fuegos</text>

  <!-- Card B: orden -->
  <rect x="498" y="80" width="430" height="290" rx="14" fill="url(#orangeGrad)"/>
  <text x="522" y="118" font-size="14" font-weight="700" fill="#fff2e2" letter-spacing="0.5">CON GRUPO SACHMAN</text>
  <text x="522" y="168" font-size="46" font-weight="800" fill="#ffffff">$18,900</text>
  <text x="668" y="168" font-size="18" font-weight="600" fill="#fff2e2">MXN/mes</text>
  <text x="522" y="196" font-size="14" fill="#fff2e2">equipo, procesos y cumplimiento REPSE incluido</text>

  <rect x="522" y="222" width="195" height="60" rx="10" fill="rgba(255,255,255,0.16)"/>
  <text x="540" y="246" font-size="12" fill="#fff2e2">Declaraciones a tiempo</text>
  <text x="540" y="270" font-size="22" font-weight="800" fill="#ffffff">100%</text>

  <rect x="727" y="222" width="180" height="60" rx="10" fill="rgba(255,255,255,0.16)"/>
  <text x="745" y="246" font-size="12" fill="#fff2e2">N&#243;mina sin errores</text>
  <text x="745" y="270" font-size="22" font-weight="800" fill="#ffffff">99%</text>

  <polyline points="522,335 570,325 618,330 666,310 714,314 762,296 810,282 858,270"
    fill="none" stroke="#ffffff" stroke-width="3" stroke-linecap="round" stroke-linejoin="round"/>
  <circle cx="858" cy="270" r="5" fill="#ffffff"/>

  <!-- KPI strip -->
  <rect x="32" y="398" width="290" height="120" rx="14" fill="#1c2942" stroke="#2c3c5c" stroke-width="1"/>
  <text x="56" y="432" font-size="13" font-weight="700" fill="#8fa0b8">RIESGO ALTO DETECTADO</text>
  <text x="56" y="480" font-size="32" font-weight="800" fill="#FF8A00">2 &#225;reas</text>

  <rect x="335" y="398" width="290" height="120" rx="14" fill="#1c2942" stroke="#2c3c5c" stroke-width="1"/>
  <text x="359" y="432" font-size="13" font-weight="700" fill="#8fa0b8">AHORRO ESTIMADO</text>
  <text x="359" y="480" font-size="32" font-weight="800" fill="#ffffff">$49,000<tspan font-size="16" fill="#8fa0b8">/mes</tspan></text>

  <rect x="638" y="398" width="290" height="120" rx="14" fill="#1c2942" stroke="#2c3c5c" stroke-width="1"/>
  <text x="662" y="432" font-size="13" font-weight="700" fill="#8fa0b8">CUMPLIMIENTO REPSE</text>
  <text x="662" y="480" font-size="26" font-weight="800" fill="#5fd0a0">&#10003; Vigente</text>

  <!-- footer note -->
  <text x="480" y="580" font-size="13" fill="#5c6b80" text-anchor="middle">Vista ilustrativa del panel que recibe cada cliente al completar su diagn&#243;stico operativo.</text>
</svg>
